<svg width="116" height="22" viewBox="0 0 116 22" fill="none" xmlns="http://www.w3.org/2000/svg">
<path d="M0.777344 21V1.09375H7.75C10.1654 1.09375 11.9974 1.55859 13.2461 2.48828C14.4948 3.40885 15.1191 4.76237 15.1191 6.54883C15.1191 7.52409 14.8685 8.38542 14.3672 9.13281C13.8659 9.87109 13.1686 10.4134 12.2754 10.7598C13.2962 11.015 14.0983 11.5299 14.6816 12.3047C15.2741 13.0794 15.5703 14.0273 15.5703 15.1484C15.5703 17.0625 14.9596 18.5117 13.7383 19.4961C12.5169 20.4805 10.776 20.9818 8.51562 21H0.777344ZM4.87891 12.332V17.7051H8.39258C9.35872 17.7051 10.1107 17.4772 10.6484 17.0215C11.1953 16.5566 11.4688 15.9186 11.4688 15.1074C11.4688 13.2845 10.5254 12.3594 8.63867 12.332H4.87891ZM4.87891 9.43359H7.91406C9.98307 9.39714 11.0176 8.57227 11.0176 6.95898C11.0176 6.05664 10.7533 5.40951 10.2246 5.01758C9.70508 4.61654 8.88021 4.41602 7.75 4.41602H4.87891V9.43359ZM22.7617 17.7051H31.4707V21H18.6602V1.09375H22.7617V17.7051ZM49.3125 11.498C49.3125 13.4577 48.9661 15.1758 48.2734 16.6523C47.5807 18.1289 46.5872 19.2682 45.293 20.0703C44.0078 20.8724 42.5312 21.2734 40.8633 21.2734C39.2135 21.2734 37.7415 20.877 36.4473 20.084C35.153 19.291 34.1504 18.1608 33.4395 16.6934C32.7285 15.2168 32.3685 13.5215 32.3594 11.6074V10.623C32.3594 8.66341 32.7103 6.94076 33.4121 5.45508C34.123 3.96029 35.1211 2.81641 36.4062 2.02344C37.7005 1.22135 39.1771 0.820312 40.8359 0.820312C42.4948 0.820312 43.9668 1.22135 45.252 2.02344C46.5462 2.81641 47.5443 3.96029 48.2461 5.45508C48.957 6.94076 49.3125 8.65885 49.3125 10.6094V11.498ZM45.1562 10.5957C45.1562 8.50846 44.7826 6.92253 44.0352 5.83789C43.2878 4.75326 42.2214 4.21094 40.8359 4.21094C39.4596 4.21094 38.3978 4.7487 37.6504 5.82422C36.903 6.89062 36.5247 8.45833 36.5156 10.5273V11.498C36.5156 13.5306 36.8893 15.1074 37.6367 16.2285C38.3841 17.3496 39.4596 17.9102 40.8633 17.9102C42.2396 17.9102 43.2969 17.3724 44.0352 16.2969C44.7734 15.2122 45.1471 13.6354 45.1562 11.5664V10.5957ZM57.6523 1.09375L62.7656 15.5312L67.8516 1.09375H73.2383V21H69.123V15.5586L69.5332 6.16602L64.1602 21H61.3438L55.9844 6.17969L56.3945 15.5586V21H52.293V1.09375H57.6523ZM111.164 19.0586C111.164 18.4297 111.374 17.9193 111.793 17.5273C112.221 17.1354 112.755 16.9395 113.393 16.9395C114.04 16.9395 114.573 17.1354 114.992 17.5273C115.421 17.9193 115.635 18.4297 115.635 19.0586C115.635 19.6784 115.425 20.1842 115.006 20.5762C114.587 20.959 114.049 21.1504 113.393 21.1504C112.745 21.1504 112.212 20.959 111.793 20.5762C111.374 20.1842 111.164 19.6784 111.164 19.0586Z" fill="#282D2F"/>
<path d="M84.1758 16.0645L88.6875 1.09375H93.2539L86.3223 21H82.043L75.1387 1.09375H79.6914L84.1758 16.0645ZM108.361 21H94.7168V18.293L101.156 11.4297C102.04 10.4635 102.692 9.62044 103.111 8.90039C103.54 8.18034 103.754 7.49674 103.754 6.84961C103.754 5.96549 103.531 5.27279 103.084 4.77148C102.637 4.26107 101.999 4.00586 101.17 4.00586C100.277 4.00586 99.5703 4.31576 99.0508 4.93555C98.5404 5.54622 98.2852 6.35286 98.2852 7.35547H94.3203C94.3203 6.14323 94.6074 5.03581 95.1816 4.0332C95.765 3.0306 96.5853 2.24674 97.6426 1.68164C98.6999 1.10742 99.8984 0.820312 101.238 0.820312C103.289 0.820312 104.88 1.3125 106.01 2.29688C107.149 3.28125 107.719 4.67122 107.719 6.4668C107.719 7.45117 107.464 8.45378 106.953 9.47461C106.443 10.4954 105.568 11.6849 104.328 13.043L99.8027 17.8145H108.361V21Z" fill="#00B3FF"/>
</svg>
