<svg width="64" height="58" viewBox="0 0 64 58" fill="none" xmlns="http://www.w3.org/2000/svg">
<path d="M62.1367 8.37549C62.1328 8.37549 62.1289 8.375 62.125 8.375H45.125V6.5C45.125 3.39844 42.6016 0.875 39.5 0.875H24.5C21.3984 0.875 18.875 3.39844 18.875 6.5V8.375H1.875C0.831055 8.375 0 9.23047 0 10.25V51.5C0 54.6016 2.52344 57.125 5.625 57.125H58.375C61.4766 57.125 64 54.6016 64 51.5V10.2896C64 10.2871 64 10.2847 64 10.2822C63.9282 9.05078 63.1709 8.38232 62.1367 8.37549ZM22.625 6.5C22.625 5.46631 23.4663 4.625 24.5 4.625H39.5C40.5337 4.625 41.375 5.46631 41.375 6.5V8.375H22.625V6.5ZM59.5234 12.125L53.7007 29.5928C53.4453 30.3599 52.7305 30.875 51.9224 30.875H41.375V29C41.375 27.9644 40.5356 27.125 39.5 27.125H24.5C23.4644 27.125 22.625 27.9644 22.625 29V30.875H12.0776C11.2695 30.875 10.5547 30.3599 10.2993 29.5928L4.47656 12.125H59.5234ZM37.625 30.875V34.625H26.375V30.875H37.625ZM60.25 51.5C60.25 52.5337 59.4087 53.375 58.375 53.375H5.625C4.59131 53.375 3.75 52.5337 3.75 51.5V21.8042L6.7417 30.7788C7.5083 33.0796 9.65283 34.625 12.0776 34.625H22.625V36.5C22.625 37.5356 23.4644 38.375 24.5 38.375H39.5C40.5356 38.375 41.375 37.5356 41.375 36.5V34.625H51.9224C54.3472 34.625 56.4917 33.0796 57.2583 30.7788L60.25 21.8042V51.5Z" fill="#21B65C"/>
</svg>
