<svg width="64" height="58" viewBox="0 0 64 58" fill="none" xmlns="http://www.w3.org/2000/svg">
<path d="M31.9999 57.4393C31.0888 57.4393 30.2104 57.1093 29.5258 56.5097C26.9404 54.2489 24.4477 52.1244 22.2485 50.2504L22.2373 50.2406C15.7895 44.746 10.2217 40.0009 6.34764 35.3266C2.01709 30.101 0 25.1464 0 19.7339C0 14.4751 1.80322 9.62352 5.07714 6.07226C8.39012 2.479 12.936 0.5 17.8789 0.5C21.5732 0.5 24.9565 1.66797 27.9345 3.97118C29.4374 5.13378 30.7997 6.55663 31.9999 8.21629C33.2006 6.55663 34.5624 5.13378 36.0658 3.97118C39.0439 1.66797 42.4272 0.5 46.1215 0.5C51.0639 0.5 55.6102 2.479 58.9232 6.07226C62.1971 9.62352 63.9999 14.4751 63.9999 19.7339C63.9999 25.1464 61.9833 30.101 57.6527 35.3261C53.7787 40.0009 48.2113 44.7455 41.7646 50.2397C39.5614 52.1166 37.0649 54.2445 34.4736 56.5106C33.7895 57.1093 32.9106 57.4393 31.9999 57.4393ZM17.8789 4.24902C13.9956 4.24902 10.4282 5.79882 7.83299 8.61327C5.19921 11.4702 3.74853 15.4194 3.74853 19.7339C3.74853 24.2861 5.44042 28.3574 9.23387 32.9345C12.9004 37.3588 18.354 42.0063 24.6684 47.3876L24.6801 47.3974C26.8876 49.2787 29.3901 51.4115 31.9946 53.6889C34.6147 51.4071 37.121 49.2709 39.3329 47.3866C45.6469 42.0053 51.1 37.3588 54.7665 32.9345C58.5595 28.3574 60.2514 24.2861 60.2514 19.7339C60.2514 15.4194 58.8007 11.4702 56.1669 8.61327C53.5722 5.79882 50.0043 4.24902 46.1215 4.24902C43.2768 4.24902 40.665 5.15331 38.3588 6.93651C36.3036 8.52635 34.872 10.5361 34.0326 11.9424C33.601 12.6655 32.8412 13.0971 31.9999 13.0971C31.1586 13.0971 30.3989 12.6655 29.9672 11.9424C29.1284 10.5361 27.6967 8.52635 25.6411 6.93651C23.3349 5.15331 20.7231 4.24902 17.8789 4.24902Z" fill="#21B65C"/>
</svg>
