<svg width="64" height="64" viewBox="0 0 64 64" fill="none" xmlns="http://www.w3.org/2000/svg">
<path d="M57.5423 42.5849L61.9207 38.206C64.6926 35.4346 64.6931 30.9243 61.9212 28.1514C61.0706 27.3013 60.0491 26.7041 58.9578 26.3731C59.8504 25.1607 60.3333 23.7012 60.3333 22.1675C60.3333 20.2686 59.5935 18.4829 58.2503 17.1402C56.908 15.7974 55.1224 15.0577 53.2229 15.0577C53.1434 15.0577 53.0638 15.0591 52.9842 15.0616C53.0462 13.1636 52.3548 11.2447 50.909 9.7984C49.4632 8.35309 47.5418 7.66071 45.6468 7.7237C45.6492 7.6446 45.6507 7.56452 45.6507 7.48493C45.6507 5.58553 44.911 3.80037 43.5682 2.4576C40.7967 -0.313871 36.2865 -0.314359 33.5135 2.4576L31.9999 3.97127L30.4867 2.45809C29.1439 1.11484 27.3583 0.375092 25.4589 0.375092C23.5599 0.375092 21.7748 1.11484 20.432 2.45712C18.9857 3.9034 18.2958 5.82283 18.3588 7.72224C18.2787 7.71931 18.1986 7.71638 18.1186 7.71638C16.2196 7.71638 14.434 8.45563 13.0902 9.7984C11.6444 11.2452 10.9545 13.1646 11.0175 15.0635C10.9369 15.0606 10.8569 15.0577 10.7763 15.0577C8.87737 15.0577 7.09173 15.7974 5.74993 17.1397C4.40668 18.4825 3.66693 20.2681 3.66693 22.1675C3.66693 23.7007 4.14935 25.1602 5.04242 26.3721C3.935 26.7061 2.91986 27.3106 2.07856 28.1514C-0.686572 30.9175 -0.69292 35.4136 2.06 38.1865C2.06684 38.1938 2.07367 38.2007 2.08051 38.208L6.46526 42.5918C6.47112 42.5981 6.47747 42.6045 6.48382 42.6108C6.747 42.8745 7.02825 43.1132 7.32317 43.3296L6.0263 44.6264C4.76507 45.8876 4.1225 47.6059 4.21771 49.4648C4.30853 51.2494 5.0766 52.9496 6.37933 54.2524L13.7958 61.6693C15.1718 63.0448 16.9784 63.7328 18.7855 63.7328C20.5927 63.7328 22.3998 63.0448 23.7753 61.6693L27.2225 58.2216C28.7953 58.559 30.3973 58.7304 32.0008 58.7304C33.6029 58.7304 35.2054 58.56 36.7777 58.2226L40.224 61.6693C41.5999 63.0448 43.4066 63.7328 45.2137 63.7328C47.0203 63.7323 48.8279 63.0448 50.2034 61.6693L57.6204 54.2524C60.3714 51.5014 60.6839 47.3374 58.3167 44.9697L56.7371 43.3901L57.5164 42.6103C57.5252 42.602 57.5335 42.5937 57.5423 42.5849ZM23.1454 5.17098C23.7636 4.55281 24.5853 4.21248 25.4594 4.21248C26.3334 4.21248 27.1551 4.55281 27.7733 5.17098L33.6459 11.0435C34.9217 12.3199 34.9217 14.396 33.6459 15.6719C33.0277 16.2901 32.2059 16.6304 31.3324 16.6304H31.3319C30.4579 16.6299 29.6366 16.2901 29.0184 15.6719C29.0174 15.6709 29.0165 15.67 29.016 15.6695L23.1469 9.80036C23.142 9.79547 23.1376 9.79059 23.1322 9.7862C21.8695 8.50837 21.8739 6.44197 23.1454 5.17098ZM15.7953 17.1314C14.5282 15.8545 14.5312 13.7847 15.8036 12.5123C16.4223 11.8941 17.2445 11.5538 18.1186 11.5538C18.9916 11.5538 19.8124 11.8936 20.4306 12.5113C20.431 12.5113 20.4315 12.5118 20.4315 12.5123C20.434 12.5142 20.4359 12.5162 20.4379 12.5181L26.3036 18.3838C26.307 18.3877 26.3114 18.3916 26.3153 18.3955L27.7728 19.8531C28.391 20.4712 28.7318 21.293 28.7318 22.1675C28.7318 23.0415 28.3915 23.8633 27.7733 24.481C27.1551 25.0991 26.3334 25.4395 25.4594 25.4395C24.5853 25.4395 23.7636 25.0991 23.1459 24.481C23.1381 24.4732 23.1303 24.4658 23.1224 24.4585L21.6835 23.0191C21.6815 23.0171 21.6796 23.0152 21.6776 23.0127L15.8041 17.1402L15.8036 17.1397C15.8007 17.1368 15.7978 17.1338 15.7953 17.1314ZM8.46379 19.8531C9.08147 19.2354 9.90275 18.8951 10.7768 18.8951C11.6508 18.8951 12.4726 19.2354 13.0907 19.8535L18.9701 25.7329C20.2396 27.0093 20.2372 29.0806 18.9643 30.3545C18.3461 30.9722 17.5238 31.3125 16.6498 31.3125C15.7758 31.3125 14.954 30.9722 14.3363 30.354C14.3285 30.3467 14.3212 30.3389 14.3134 30.3315L8.48186 24.5C8.47551 24.4937 8.46916 24.4868 8.4633 24.481C7.84514 23.8628 7.50481 23.0415 7.50481 22.1675C7.50432 21.2935 7.84514 20.4717 8.46379 19.8531ZM4.81195 35.5127C4.80462 35.5049 4.7973 35.4975 4.78997 35.4902C3.51654 34.2143 3.51752 32.1401 4.79242 30.8652C5.41058 30.2471 6.23235 29.9067 7.10637 29.9067C7.9804 29.9067 8.80266 30.2471 9.42082 30.8657L13.8251 35.2695C15.101 36.5454 15.101 38.6216 13.8256 39.8974C13.2074 40.5156 12.3857 40.8559 11.5121 40.8559H11.5116C11.351 40.8559 11.1923 40.8442 11.0361 40.8217C11.0243 40.8193 11.0126 40.8178 11.0009 40.8159C10.3271 40.7109 9.705 40.3994 9.21135 39.9116C9.20647 39.9062 9.20109 39.9013 9.19621 39.896L4.81195 35.5127ZM27.1185 54.2543C27.1019 54.2499 27.0858 54.248 27.0697 54.2441C27.0311 54.2348 26.993 54.226 26.9545 54.2192C26.9261 54.2143 26.8978 54.2109 26.869 54.207C26.8373 54.2031 26.8055 54.1991 26.7733 54.1967C26.7396 54.1938 26.7059 54.1923 26.6722 54.1918C26.6449 54.1908 26.618 54.1904 26.5907 54.1908C26.5546 54.1913 26.5189 54.1933 26.4833 54.1962C26.4574 54.1982 26.4315 54.2001 26.4056 54.2031C26.3705 54.207 26.3358 54.2123 26.3011 54.2182C26.2738 54.2226 26.2469 54.228 26.2196 54.2338C26.1879 54.2407 26.1566 54.248 26.1254 54.2568C26.0956 54.2646 26.0658 54.2734 26.036 54.2826C26.0082 54.2919 25.9813 54.3017 25.954 54.3115C25.9222 54.3237 25.8905 54.3359 25.8597 54.3495C25.8348 54.3603 25.8099 54.372 25.7855 54.3837C25.7543 54.3989 25.7235 54.4145 25.6932 54.4316C25.6683 54.4452 25.6439 54.4599 25.6195 54.475C25.5922 54.4921 25.5643 54.5092 25.5375 54.5278C25.5101 54.5468 25.4833 54.5668 25.4569 54.5873C25.4349 54.6039 25.4135 54.6205 25.392 54.6381C25.3607 54.6645 25.3309 54.6918 25.3016 54.7201C25.2904 54.7309 25.2782 54.7402 25.267 54.7514L21.0624 58.956C19.807 60.2113 17.765 60.2113 16.5097 58.956L9.09319 51.5395C8.4633 50.9096 8.0927 50.1035 8.05022 49.269C8.01165 48.5087 8.25627 47.8237 8.74016 47.3403L11.3896 44.6904C11.4301 44.6909 11.4706 44.6933 11.5116 44.6933C11.5116 44.6933 11.5116 44.6933 11.5121 44.6933C13.4106 44.6933 15.1957 43.9536 16.539 42.6108C18.5941 40.5551 19.1239 37.5444 18.1308 34.9946C19.4647 34.7134 20.6908 34.0542 21.6781 33.0679C22.8055 31.9394 23.4745 30.5229 23.684 29.0532C24.2572 29.2002 24.8524 29.2769 25.4594 29.2769C25.4594 29.2769 25.4594 29.2769 25.4598 29.2769C27.3583 29.2769 29.1434 28.5376 30.4867 27.1948C31.8294 25.8521 32.5692 24.0664 32.5692 22.1675C32.5692 21.5616 32.493 20.9673 32.347 20.3951C33.8607 20.1802 35.2591 19.4859 36.3592 18.3848C39.1312 15.6133 39.1312 11.1031 36.3597 8.33063L34.7132 6.68415L36.2269 5.17098C37.5033 3.8951 39.5794 3.8951 40.8548 5.17049C41.473 5.78865 41.8133 6.61042 41.8133 7.48445C41.8133 8.35847 41.473 9.18024 40.8548 9.7984C40.4803 10.1729 40.2928 10.6641 40.2928 11.1553C40.2928 11.6461 40.4798 12.1373 40.8548 12.5118C41.6043 13.2613 42.8187 13.2613 43.5682 12.5118C44.8436 11.2364 46.9197 11.2359 48.1961 12.5118C49.472 13.7881 49.4715 15.8643 48.1956 17.1402C47.8211 17.5147 47.6336 18.0059 47.6336 18.4966C47.6336 18.9878 47.8206 19.4785 48.1956 19.8531C48.9451 20.6026 50.1595 20.6026 50.909 19.8535C51.5271 19.2354 52.3494 18.8951 53.2234 18.8946C54.0975 18.8946 54.9192 19.2349 55.5369 19.8531C56.1556 20.4717 56.4959 21.2935 56.4959 22.1675C56.4959 23.0298 56.1643 23.8413 55.5618 24.4561C55.553 24.4649 55.5442 24.4732 55.5359 24.482L52.7845 27.2339C52.0994 27.919 52.0325 29.0073 52.6287 29.771L52.7273 29.8975C53.3221 30.6597 54.3914 30.8599 55.2215 30.3652C56.5081 29.5986 58.1472 29.8042 59.2078 30.8643C60.4837 32.1406 60.4837 34.2168 59.2078 35.4927L54.804 39.896C54.7957 39.9048 54.7869 39.9135 54.7786 39.9223L45.326 49.3749C40.5833 54.1176 33.6068 55.9872 27.1185 54.2543ZM55.6038 47.6831C56.4451 48.5248 56.1199 50.3271 54.9075 51.5395L47.4905 58.956C46.2352 60.2113 44.1932 60.2113 42.9378 58.956L40.8968 56.915C43.5496 55.7826 45.9793 54.1484 48.0394 52.0883L54.0237 46.1035L55.6038 47.6831Z" fill="#21B65C"/>
</svg>
